# xmcd
# 
# Track frame offsets:
#     150
#     16597
#     33500
#     45902
#     60567
#     70432
#     92952
#     112520
#     128167
#     143082
#     151470
#     163002
#     175762
#     189357
#     208065
#     220730
#     233527
#     247710
#     258985
#     275240
#     287940
#     305445
# 
# Disc length: 4252
# 
# Revision: 6
# Processed by: cddbd v1.5.2PL0 Copyright (c) Steve Scherf et al.
# Submitted via: fre:ac v1.0.27
# 
DISCID=2c109a16
DTITLE=Mink DeVille - CADILLAC WALK - THE MINK DEVILLE COLLECTION
DYEAR=2001
DGENRE=Rock
TTITLE0=Spanish Stroll
TTITLE1=Mixed Up Shook Up Girl
TTITLE2=She's So Tough
TTITLE3=Cadillac Walk
TTITLE4=Gunslinger
TTITLE5=Venus Of Avenue D
TTITLE6=Little Girl
TTITLE7='A' Train Lady
TTITLE8=Guardian Angel
TTITLE9=Confidence To Kill
TTITLE10=Soul Twist
TTITLE11=Desperate Days
TTITLE12=I Broke That Promise
TTITLE13=Just Your Friends
TTITLE14=You Just Keep Holding On
TTITLE15=This Must Be The Night
TTITLE16=Savoire Faire
TTITLE17=Mazurka
TTITLE18=Turn You Every Way But Loose
TTITLE19=Bad Boy
TTITLE20=Just To Walk That Little Girl Home
TTITLE21=That World Outside
EXTD=All tracks 24-bit digitally remastered.\nTaken from the Capitol albums\n- "Cabretta" (tracks 1 - 7), 1977\n- "Return To Magenta" (tracks 8 - 14), 1978\n- "Le Chat Bleu" (tracks 15 - 22), 1979 - 1981
EXTT0=
EXTT1=
EXTT2=
EXTT3=
EXTT4=
EXTT5=
EXTT6=
EXTT7=
EXTT8=
EXTT9=
EXTT10=
EXTT11=
EXTT12=
EXTT13=
EXTT14=
EXTT15=
EXTT16=
EXTT17=
EXTT18=
EXTT19=
EXTT20=
EXTT21=
PLAYORDER=
